{"title":"Non-Stop (2014) BDRip 480p x264 Dual Audio [Hindi-Eng] YsB TeaM","uid":10419755,"size":480625527,"categoryP":"video","categoryS":"movies","magnet":"?xt=urn:btih:fac02c5c0796baf1b4a0d42c8cd010d8ea08ab5e&amp;dn=Non-Stop+%282014%29+BDRip+480p+x264+Dual+Audio+%5BHindi-Eng%5D+YsB+TeaM+&amp;tr=udp%3A%2F%2Ftracker.openbittorrent.com%3A80&amp;tr=udp%3A%2F%2Fopen.demonii.com%3A1337&amp;tr=udp%3A%2F%2Ftracker.coppersurfer.tk%3A6969&amp;tr=udp%3A%2F%2Fexodus.desync.com%3A6969","seeders":1,"leechers":0,"uploader":"Dj_YsB","files":9,"time":1403630979,"description":"Non-Stop (2014) BDRip 480p x264 Dual Audio [Hindi-Eng] YsB TeaM SSX\n &lt;a href=&quot;\nhttp://i.imgur.com/bhGdzJx.jpg&quot; rel=&quot;nofollow&quot; target=&quot;_NEW&quot;&gt;\nhttp://i.imgur.com/bhGdzJx.jpg&lt;/a&gt;\n\nInfo:\nGeneral\nComplete name                            : Non-Stop (2014) BDRip 480p x264 Dual Audio [Hindi-Eng] YsB TeaM SSX.mkv\nFormat                                   : Matroska\nFile size                                : 453 MiB\nDuration                                 : 1h 46mn\nOverall bit rate                         : 593 Kbps\nMovie name                               : Non-Stop (2014) BDRip 480p x264 Dual Audio [Hindi-Eng] YsB TeaM SSX\nDURATION                                 : 01:46:37.408000000\n\nVideo\nID                                       : 1\nFormat                                   : AVC\nDuration                                 : 1h 46mn\nBit rate                                 : 400 Kbps\nWidth                                    : 848 pixels\nHeight                                   : 352 pixels\nDisplay aspect ratio                     : 2.40:1\nFrame rate                               : 23.976 fps\nStream size                              : 297 MiB (66%)\nTitle                                    : YsB TeaM SSX\n\nAudio #1\nID                                       : 2\nFormat                                   : AC-3\nDuration                                 : 1h 46mn\nBit rate                                 : 96.0 Kbps\nChannel(s)                               : 2 channels\nChannel positions                        : Front: L R\nSampling rate                            : 48.0 KHz\nStream size                              : 73.2 MiB (16%)\nTitle                                    : YsB TeaM SSX\nLanguage                                 : Hindi\n\nAudio #2\nID                                       : 3\nFormat                                   : AC-3\nDuration                                 : 1h 46mn\nBit rate                                 : 96.0 Kbps\nChannel(s)                               : 2 channels\nChannel positions                        : Front: L R\nSampling rate                            : 48.0 KHz\nStream size                              : 73.2 MiB (16%)\nTitle                                    : YsB TeaM SSX\nLanguage                                 : English\n\nScreenShot: &lt;a href=&quot;\nhttp://i.imgur.com/NwaqU9Z.jpg&quot; rel=&quot;nofollow&quot; target=&quot;_NEW&quot;&gt;\nhttp://i.imgur.com/NwaqU9Z.jpg&lt;/a&gt; &lt;a href=&quot;\nhttp://i.imgur.com/sqEs8Bv.jpg&quot; rel=&quot;nofollow&quot; target=&quot;_NEW&quot;&gt;\nhttp://i.imgur.com/sqEs8Bv.jpg&lt;/a&gt; &lt;a href=&quot;\nhttp://i.imgur.com/VLlcUZN.jpg&quot; rel=&quot;nofollow&quot; target=&quot;_NEW&quot;&gt;\nhttp://i.imgur.com/VLlcUZN.jpg&lt;/a&gt;\n\nThanks\nGPsoft, HDDR...\nTeaM SSX - Maverick Dude, Hari, Hemkumar, Sajan...","torrent":{"xt":"urn:btih:fac02c5c0796baf1b4a0d42c8cd010d8ea08ab5e","amp;dn":"Non-Stop+%282014%29+BDRip+480p+x264+Dual+Audio+%5BHindi-Eng%5D+YsB+TeaM+","amp;tr":["udp%3A%2F%2Ftracker.openbittorrent.com%3A80","udp%3A%2F%2Fopen.demonii.com%3A1337","udp%3A%2F%2Ftracker.coppersurfer.tk%3A6969","udp%3A%2F%2Fexodus.desync.com%3A6969"],"infoHash":"fac02c5c0796baf1b4a0d42c8cd010d8ea08ab5e","infoHashBuffer":{"type":"Buffer","data":[250,192,44,92,7,150,186,241,180,160,212,44,140,208,16,216,234,8,171,94]},"announce":[],"urlList":[]}}